PathFileType	4	(X/Y/Z)	/Users/mathieubourgeois/Desktop/Analyse/Traitement/Sujet_06/Data/Transformed_Sujet_06_velo_80.trc
DataRate	CameraRate	NumFrames	NumMarkers	Units	OrigDataRate	OrigDataStartFrame	OrigNumFrames
120.000000	120.000000	4	36	mm	120.000000	1419	1892
Frame#	Time	RFHD			RANE			STRN			LANI			LKNE			T10			RHUM			RWRB			C7			LFWT			LTOE			RTOE			LWRA			LBWT			RBWT			RFWT			LKNI			RKNI			RKNE			LANE			RANI			LHEE			RHEE			LHUM			LRAD			RRAD			RWRA			LWRB			LFHD			LBHD			RBHD			RSHO			LSHO			CLAV			LCAR			RCAR			
		X1	Y1	Z1	X2	Y2	Z2	X3	Y3	Z3	X4	Y4	Z4	X5	Y5	Z5	X6	Y6	Z6	X7	Y7	Z7	X8	Y8	Z8	X9	Y9	Z9	X10	Y10	Z10	X11	Y11	Z11	X12	Y12	Z12	X13	Y13	Z13	X14	Y14	Z14	X15	Y15	Z15	X16	Y16	Z16	X17	Y17	Z17	X18	Y18	Z18	X19	Y19	Z19	X20	Y20	Z20	X21	Y21	Z21	X22	Y22	Z22	X23	Y23	Z23	X24	Y24	Z24	X25	Y25	Z25	X26	Y26	Z26	X27	Y27	Z27	X28	Y28	Z28	X29	Y29	Z29	X30	Y30	Z30	X31	Y31	Z31	X32	Y32	Z32	X33	Y33	Z33	X34	Y34	Z34	X35	Y35	Z35	X36	Y36	Z36	

1420	11.825	261.7472229003906	1393.937866210938	112.6452026367187	-3.890968561172509	258.8598022460938	194.9036407470703	-27.35626411437989	1200.399658203125	48.30229187011712	-97.76827239990234	578.8646240234375	-48.87582778930669	124.8320083618164	881.6517333984375	-135.9659423828125	-197.9414825439453	1346.958984375	66.26166534423817	181.4977722167968	1117.640991210938	226.8248901367187	386.4136962890625	1008.709899902344	176.9498443603516	34.86524963378906	1463.479614257812	53.89784240722648	-175.5986022949219	1110.130126953125	-48.52264404296884	-23.95161437988279	427.2724609375	-133.7523193359375	171.0565032958984	181.5085906982422	192.214340209961	414.3623352050781	1035.08349609375	-120.5318069458008	-336.95361328125	1142.7255859375	7.255841732025035	-329.5304260253906	1134.592041015625	117.2397232055663	-172.8612060546875	1096.443725585938	158.7150878906249	144.9731903076172	833.905517578125	-42.03400039672855	23.88287353515624	621.3158569335938	89.1476669311523	0.6304922699928057	670.6859741210938	185.3440399169922	-126.026252746582	591.7526245117188	-127.7298965454102	24.74186325073241	261.2965698242188	117.2261352539062	-171.7859039306641	612.3499755859375	-82.70258331298834	-57.31129837036135	244.4175720214844	149.2955780029297	188.915756225586	1129.594360351562	-177.5707702636719	225.0079498291016	1176.336059570312	-203.177230834961	220.7162322998047	1144.821411132812	276.0242614746093	413.1380310058593	1015.959533691406	237.6275177001953	435.7315979003906	1038.248168945312	-179.18017578125	262.980224609375	1383.245971679688	-30.77941894531255	183.3166809082031	1510.494750976562	-39.93838882446296	183.2523956298828	1539.852905273438	86.23877716064446	67.0368957519531	1417.233520507812	188.4273681640624	41.25814056396486	1415.469970703125	-98.48373413085946	53.17550659179687	1326.106567382812	46.29583358764641	490.9263916015625	1043.10986328125	-98.18314361572266	486.3482360839844	1046.221313476562	179.2808685302734	
1421	11.83333333333333	261.9613037109375	1393.7822265625	111.5437622070312	-13.72208881378176	253.9168548583984	194.478271484375	-27.35937881469727	1200.34033203125	48.2451095581054	-89.41436767578125	586.18408203125	-49.78791046142583	127.7519683837891	891.17138671875	-135.4930725097657	-197.9212646484375	1346.93505859375	66.70530700683582	181.4562377929687	1117.759521484375	227.0580902099609	386.3503723144531	1008.84619140625	176.976806640625	34.77318954467773	1463.433715820312	53.43870925903312	-175.6438903808594	1110.37451171875	-48.18113327026376	-12.06953048706053	435.7005004882812	-133.7394714355469	160.2434539794922	173.6671905517578	192.4380493164063	414.0202026367188	1035.022338867188	-120.4176635742188	-337.1260375976562	1142.978271484375	7.994380474090465	-329.5092163085938	1134.51318359375	117.5928421020507	-172.8648681640625	1096.202392578125	159.0803985595702	147.4866180419922	845.2476196289062	-43.60560607910159	16.13191986083983	616.7348022460938	89.24094390869136	-5.846703052520775	665.8224487304688	185.1726379394531	-118.459831237793	597.4185791015625	-127.5722122192383	15.35390663146971	256.1140441894531	116.967529296875	-164.7803497314453	616.8233032226562	-82.70157623291021	-66.93321990966798	240.2343444824219	148.482192993164	188.4236907958985	1128.933471679688	-177.6257629394532	224.3469848632813	1175.647827148438	-203.5237579345704	220.7673187255859	1145.039672851562	276.1499938964843	413.1004333496093	1016.04296875	237.6539611816406	435.3952941894531	1038.158935546875	-179.0881958007812	262.5843200683594	1383.115478515625	-31.89091491699224	183.0324401855469	1510.448608398438	-40.71297454833991	183.4246673583984	1539.7783203125	85.4592208862304	67.11772155761716	1417.440185546875	188.040298461914	40.78234481811525	1415.0576171875	-98.9830856323243	53.1281623840332	1326.116943359375	46.00294113159173	490.654541015625	1043.2490234375	-98.14350891113281	486.3335571289062	1046.22900390625	179.2978210449219	
1422	11.84166666666667	262.0168762207031	1393.609497070312	110.5923461914062	-23.85353088378909	249.8945770263672	194.0540008544922	-27.43065834045411	1200.305786132812	48.23846054077141	-81.33127593994141	590.5402221679688	-48.65058135986332	130.302230834961	900.1756591796875	-134.9014129638672	-197.9996185302734	1346.90966796875	66.97159576416004	181.3732604980468	1117.86181640625	227.2892456054687	386.2667541503906	1008.951293945312	177.0412902832031	34.64181900024413	1463.37060546875	53.07251739501945	-175.7784576416016	1110.619140625	-47.86442947387705	0.286907404661195	443.4273681640625	-133.6872711181641	148.9285583496093	166.5919647216797	192.704833984375	413.7188720703125	1034.894409179688	-120.289436340332	-337.3097534179688	1143.007202148438	8.189761161804089	-329.6212158203125	1134.44580078125	117.7804641723632	-173.0225219726563	1096.056640625	159.3951263427734	150.4652099609375	854.1776733398438	-41.08830642700198	9.7105312347412	612.4452514648438	89.33441925048824	-11.94805526733401	661.8145751953125	185.173583984375	-110.6688690185547	602.0828247070312	-127.436996459961	5.829608917236314	251.7935028076172	116.7078247070312	-157.5984649658203	620.1754150390625	-82.77963256835943	-76.93844604492189	236.9698028564453	147.6961212158203	187.9176483154297	1128.28759765625	-177.7475128173828	223.764892578125	1174.951782226562	-203.854721069336	220.7615051269531	1145.261596679688	276.2797851562499	413.0487060546874	1016.133728027344	237.7025299072266	435.1107788085938	1038.190185546875	-178.9823608398438	262.1505737304688	1382.984619140625	-32.86819076538091	182.6964111328125	1510.411010742188	-41.33730316162116	183.5172576904297	1539.6826171875	84.83863067626946	67.12580108642575	1417.610595703125	187.676528930664	40.39174270629884	1414.632690429688	-99.38989257812509	53.00172042846679	1326.115356445312	45.80859756469719	490.3614807128906	1043.396362304688	-98.04067230224609	486.2990417480469	1046.241577148438	179.3592071533203	
1423	11.85	262.037841796875	1393.4716796875	109.7015228271484	-34.24721145629885	246.7515258789062	193.6623229980468	-27.58171653747559	1200.269897460938	48.21899414062493	-73.61534881591797	594.6796264648438	-48.71203994750981	132.3729400634766	908.5791015625	-134.1759643554688	-198.1488800048828	1346.911499023438	67.09680175781239	181.2290802001953	1117.916625976562	227.4966888427734	386.1447448730469	1009.05859375	177.1161804199219	34.41608047485351	1463.324340820312	52.72521209716788	-175.97705078125	1110.82666015625	-47.56913375854501	12.90298271179201	450.3602905273438	-133.6300964355469	137.2671356201172	160.4385375976562	192.9982147216797	413.4363098144531	1034.822143554688	-120.1719207763672	-337.5027465820312	1142.834594726562	7.928085803985484	-329.8628845214844	1134.433349609375	117.8237686157225	-173.3247528076172	1095.9921875	159.643814086914	150.9378967285156	862.905029296875	-38.49422073364261	4.287264823913564	609.0055541992188	89.53479003906246	-17.32994461059572	658.5587768554688	185.1965179443359	-102.5967178344726	605.6591796875	-127.3073959350587	-3.960790395736709	248.3521575927734	116.5892105102539	-150.2339324951172	622.290771484375	-82.75658416748053	-87.13412475585939	234.7256317138672	146.9743499755859	187.4727478027344	1127.656372070312	-177.8700256347657	223.1676635742188	1174.3193359375	-204.2263336181641	220.6966094970703	1145.40380859375	276.4309082031249	412.9662170410156	1016.204772949219	237.7837982177734	434.8074645996094	1038.133544921875	-178.8258056640625	261.6842041015625	1382.912475585938	-33.78274917602544	182.3134002685547	1510.380981445312	-41.9002876281739	183.5166778564453	1539.584716796875	84.24636840820305	67.04817962646482	1417.708251953125	187.3991394042968	40.01796722412111	1414.24365234375	-99.85343933105477	52.82509613037109	1326.110961914062	45.6174240112304	490.0442810058594	1043.538818359375	-97.87126159667969	486.2457580566406	1046.24951171875	179.45703125	
